<mxfile host="app.diagrams.net" modified="2023-05-22T07:55:48.247Z" agent="Mozilla/5.0 (Windows NT 10.0; Win64; x64) AppleWebKit/537.36 (KHTML, like Gecko) Chrome/102.0.0.0 Safari/537.36" etag="8pObqrOflXu52XLeSjWk" version="21.3.2" type="github">
  <diagram name="第 1 页" id="7ilSvB0dUkfXtQQhNQyC">
    <mxGraphModel dx="1050" dy="549" grid="1" gridSize="10" guides="1" tooltips="1" connect="1" arrows="1" fold="1" page="1" pageScale="1" pageWidth="827" pageHeight="1169" math="0" shadow="0">
      <root>
        <mxCell id="0" />
        <mxCell id="1" parent="0" />
        <mxCell id="jz-0379kCDaYMPcXDYEe-1" value="&lt;font style=&quot;font-size: 12px;&quot;&gt;I&lt;/font&gt;&lt;sub style=&quot;font-size: 12px;&quot;&gt;1&lt;/sub&gt;" style="rounded=0;whiteSpace=wrap;html=1;fontFamily=宋体;fontSource=https%3A%2F%2Ffonts.googleapis.com%2Fcss%3Ffamily%3D%25E5%25AE%258B%25E4%25BD%2593;fontStyle=1;labelBorderColor=none;fontSize=12;" vertex="1" parent="1">
          <mxGeometry x="226" y="110" width="90" height="60" as="geometry" />
        </mxCell>
        <mxCell id="jz-0379kCDaYMPcXDYEe-2" value="&lt;font style=&quot;font-size: 12px;&quot;&gt;I&lt;/font&gt;&lt;span style=&quot;font-size: 12px;&quot;&gt;&lt;sub style=&quot;font-size: 12px;&quot;&gt;2&lt;/sub&gt;&lt;/span&gt;" style="rounded=0;whiteSpace=wrap;html=1;fontFamily=宋体;fontSource=https%3A%2F%2Ffonts.googleapis.com%2Fcss%3Ffamily%3D%25E5%25AE%258B%25E4%25BD%2593;fontStyle=1;labelBorderColor=none;fontSize=12;" vertex="1" parent="1">
          <mxGeometry x="226" y="190" width="90" height="60" as="geometry" />
        </mxCell>
        <mxCell id="jz-0379kCDaYMPcXDYEe-3" value="&lt;font style=&quot;font-size: 12px;&quot;&gt;I&lt;/font&gt;&lt;span style=&quot;font-size: 12px;&quot;&gt;&lt;sub style=&quot;font-size: 12px;&quot;&gt;3&lt;/sub&gt;&lt;/span&gt;" style="rounded=0;whiteSpace=wrap;html=1;fontFamily=宋体;fontSource=https%3A%2F%2Ffonts.googleapis.com%2Fcss%3Ffamily%3D%25E5%25AE%258B%25E4%25BD%2593;fontStyle=1;labelBorderColor=none;fontSize=12;" vertex="1" parent="1">
          <mxGeometry x="226" y="270" width="90" height="60" as="geometry" />
        </mxCell>
        <mxCell id="jz-0379kCDaYMPcXDYEe-4" value="&lt;font style=&quot;font-size: 12px;&quot;&gt;I&lt;/font&gt;&lt;span style=&quot;font-size: 12px;&quot;&gt;&lt;sub style=&quot;font-size: 12px;&quot;&gt;4&lt;/sub&gt;&lt;/span&gt;" style="rounded=0;whiteSpace=wrap;html=1;fontFamily=宋体;fontSource=https%3A%2F%2Ffonts.googleapis.com%2Fcss%3Ffamily%3D%25E5%25AE%258B%25E4%25BD%2593;fontStyle=1;labelBorderColor=none;fontSize=12;" vertex="1" parent="1">
          <mxGeometry x="226" y="350" width="90" height="60" as="geometry" />
        </mxCell>
        <mxCell id="jz-0379kCDaYMPcXDYEe-5" value="" style="endArrow=none;dashed=1;html=1;rounded=0;fontFamily=宋体;fontSource=https%3A%2F%2Ffonts.googleapis.com%2Fcss%3Ffamily%3D%25E5%25AE%258B%25E4%25BD%2593;fontStyle=1;labelBorderColor=none;fontSize=12;" edge="1" parent="1">
          <mxGeometry width="50" height="50" relative="1" as="geometry">
            <mxPoint x="226" y="180" as="sourcePoint" />
            <mxPoint x="406" y="180" as="targetPoint" />
            <Array as="points">
              <mxPoint x="276" y="180" />
            </Array>
          </mxGeometry>
        </mxCell>
        <mxCell id="jz-0379kCDaYMPcXDYEe-6" value="" style="endArrow=none;dashed=1;html=1;rounded=0;fontFamily=宋体;fontSource=https%3A%2F%2Ffonts.googleapis.com%2Fcss%3Ffamily%3D%25E5%25AE%258B%25E4%25BD%2593;fontStyle=1;labelBorderColor=none;fontSize=12;" edge="1" parent="1">
          <mxGeometry width="50" height="50" relative="1" as="geometry">
            <mxPoint x="226" y="260" as="sourcePoint" />
            <mxPoint x="466" y="260" as="targetPoint" />
            <Array as="points">
              <mxPoint x="276" y="260" />
            </Array>
          </mxGeometry>
        </mxCell>
        <mxCell id="jz-0379kCDaYMPcXDYEe-7" value="" style="endArrow=none;dashed=1;html=1;rounded=0;fontFamily=宋体;fontSource=https%3A%2F%2Ffonts.googleapis.com%2Fcss%3Ffamily%3D%25E5%25AE%258B%25E4%25BD%2593;fontStyle=1;labelBorderColor=none;fontSize=12;" edge="1" parent="1">
          <mxGeometry width="50" height="50" relative="1" as="geometry">
            <mxPoint x="226" y="340" as="sourcePoint" />
            <mxPoint x="546" y="340" as="targetPoint" />
            <Array as="points">
              <mxPoint x="276" y="340" />
            </Array>
          </mxGeometry>
        </mxCell>
        <mxCell id="jz-0379kCDaYMPcXDYEe-8" value="" style="endArrow=none;dashed=1;html=1;rounded=0;fontFamily=宋体;fontSource=https%3A%2F%2Ffonts.googleapis.com%2Fcss%3Ffamily%3D%25E5%25AE%258B%25E4%25BD%2593;fontStyle=1;labelBorderColor=none;fontSize=12;" edge="1" parent="1">
          <mxGeometry width="50" height="50" relative="1" as="geometry">
            <mxPoint x="226" y="420" as="sourcePoint" />
            <mxPoint x="596" y="420" as="targetPoint" />
            <Array as="points">
              <mxPoint x="276" y="420" />
            </Array>
          </mxGeometry>
        </mxCell>
        <mxCell id="jz-0379kCDaYMPcXDYEe-9" value="&lt;ul style=&quot;font-size: 12px;&quot;&gt;&lt;li style=&quot;font-size: 12px;&quot;&gt;本地规则&lt;/li&gt;&lt;li style=&quot;font-size: 12px;&quot;&gt;交互&lt;/li&gt;&lt;li style=&quot;font-size: 12px;&quot;&gt;全部协同规则&lt;/li&gt;&lt;li style=&quot;font-size: 12px;&quot;&gt;接受/执行&lt;/li&gt;&lt;/ul&gt;" style="text;html=1;align=left;verticalAlign=middle;resizable=0;points=[];autosize=1;strokeColor=none;fillColor=none;fontFamily=宋体;fontSource=https%3A%2F%2Ffonts.googleapis.com%2Fcss%3Ffamily%3D%25E5%25AE%258B%25E4%25BD%2593;fontStyle=1;labelBorderColor=none;fontSize=12;" vertex="1" parent="1">
          <mxGeometry x="296" y="93" width="135" height="94" as="geometry" />
        </mxCell>
        <mxCell id="jz-0379kCDaYMPcXDYEe-10" value="&lt;div style=&quot;text-align: left; font-size: 12px;&quot;&gt;&lt;ul style=&quot;font-size: 12px;&quot;&gt;&lt;li style=&quot;font-size: 12px;&quot;&gt;&lt;span style=&quot;background-color: initial; font-size: 12px;&quot;&gt;本地规则&lt;/span&gt;&lt;/li&gt;&lt;li style=&quot;font-size: 12px;&quot;&gt;&lt;span style=&quot;background-color: initial; font-size: 12px;&quot;&gt;交互&lt;/span&gt;&lt;/li&gt;&lt;li style=&quot;font-size: 12px;&quot;&gt;&lt;span style=&quot;background-color: initial; font-size: 12px;&quot;&gt;部分协同规则&lt;/span&gt;&lt;/li&gt;&lt;li style=&quot;font-size: 12px;&quot;&gt;&lt;span style=&quot;background-color: initial; font-size: 12px;&quot;&gt;接受/执行&lt;/span&gt;&lt;/li&gt;&lt;/ul&gt;&lt;/div&gt;" style="text;html=1;align=center;verticalAlign=middle;resizable=0;points=[];autosize=1;strokeColor=none;fillColor=none;fontFamily=宋体;fontSource=https%3A%2F%2Ffonts.googleapis.com%2Fcss%3Ffamily%3D%25E5%25AE%258B%25E4%25BD%2593;fontStyle=1;labelBorderColor=none;fontSize=12;" vertex="1" parent="1">
          <mxGeometry x="286" y="170" width="140" height="100" as="geometry" />
        </mxCell>
        <mxCell id="jz-0379kCDaYMPcXDYEe-11" value="&lt;ul style=&quot;font-size: 12px;&quot;&gt;&lt;li style=&quot;font-size: 12px;&quot;&gt;本地规则&lt;/li&gt;&lt;li style=&quot;font-size: 12px;&quot;&gt;接受/执行&lt;/li&gt;&lt;/ul&gt;" style="text;html=1;align=left;verticalAlign=middle;resizable=0;points=[];autosize=1;strokeColor=none;fillColor=none;fontFamily=宋体;fontSource=https%3A%2F%2Ffonts.googleapis.com%2Fcss%3Ffamily%3D%25E5%25AE%258B%25E4%25BD%2593;fontStyle=1;labelBorderColor=none;fontSize=12;" vertex="1" parent="1">
          <mxGeometry x="301" y="265" width="120" height="70" as="geometry" />
        </mxCell>
        <mxCell id="jz-0379kCDaYMPcXDYEe-12" value="&lt;ul style=&quot;font-size: 12px;&quot;&gt;&lt;li style=&quot;font-size: 12px;&quot;&gt;接受/执行&lt;/li&gt;&lt;/ul&gt;" style="text;html=1;align=left;verticalAlign=middle;resizable=0;points=[];autosize=1;strokeColor=none;fillColor=none;fontFamily=宋体;fontSource=https%3A%2F%2Ffonts.googleapis.com%2Fcss%3Ffamily%3D%25E5%25AE%258B%25E4%25BD%2593;fontStyle=1;labelBorderColor=none;fontSize=12;" vertex="1" parent="1">
          <mxGeometry x="301" y="355" width="120" height="50" as="geometry" />
        </mxCell>
        <mxCell id="jz-0379kCDaYMPcXDYEe-13" value="" style="edgeStyle=segmentEdgeStyle;endArrow=classic;html=1;curved=0;rounded=0;endSize=8;startSize=8;fontFamily=宋体;fontSource=https%3A%2F%2Ffonts.googleapis.com%2Fcss%3Ffamily%3D%25E5%25AE%258B%25E4%25BD%2593;fontStyle=1;labelBorderColor=none;fontSize=12;" edge="1" parent="1">
          <mxGeometry width="50" height="50" relative="1" as="geometry">
            <mxPoint x="626" y="420" as="sourcePoint" />
            <mxPoint x="626" y="110" as="targetPoint" />
          </mxGeometry>
        </mxCell>
        <mxCell id="jz-0379kCDaYMPcXDYEe-14" value="&lt;font style=&quot;font-size: 12px;&quot;&gt;智能水平&lt;/font&gt;" style="text;html=1;align=center;verticalAlign=middle;resizable=0;points=[];autosize=1;strokeColor=none;fillColor=none;rotation=-90;fontFamily=宋体;fontSource=https%3A%2F%2Ffonts.googleapis.com%2Fcss%3Ffamily%3D%25E5%25AE%258B%25E4%25BD%2593;fontStyle=1;labelBorderColor=none;fontSize=12;" vertex="1" parent="1">
          <mxGeometry x="571" y="235" width="70" height="30" as="geometry" />
        </mxCell>
        <mxCell id="jz-0379kCDaYMPcXDYEe-15" value="&lt;font style=&quot;border-color: var(--border-color); font-size: 16px;&quot;&gt;I&lt;/font&gt;&lt;sub style=&quot;border-color: var(--border-color);&quot;&gt;1&lt;/sub&gt;" style="rounded=0;whiteSpace=wrap;html=1;fontFamily=宋体;fontSource=https%3A%2F%2Ffonts.googleapis.com%2Fcss%3Ffamily%3D%25E5%25AE%258B%25E4%25BD%2593;" vertex="1" parent="1">
          <mxGeometry x="238" y="471" width="100" height="60" as="geometry" />
        </mxCell>
        <mxCell id="jz-0379kCDaYMPcXDYEe-16" value="&lt;font style=&quot;border-color: var(--border-color); font-size: 16px;&quot;&gt;I&lt;/font&gt;&lt;sub style=&quot;border-color: var(--border-color);&quot;&gt;2&lt;/sub&gt;" style="rounded=0;whiteSpace=wrap;html=1;fontFamily=宋体;fontSource=https%3A%2F%2Ffonts.googleapis.com%2Fcss%3Ffamily%3D%25E5%25AE%258B%25E4%25BD%2593;" vertex="1" parent="1">
          <mxGeometry x="358" y="471" width="100" height="60" as="geometry" />
        </mxCell>
        <mxCell id="jz-0379kCDaYMPcXDYEe-17" value="&lt;font style=&quot;border-color: var(--border-color); font-size: 16px;&quot;&gt;I&lt;/font&gt;&lt;sub style=&quot;border-color: var(--border-color);&quot;&gt;3&lt;/sub&gt;" style="rounded=0;whiteSpace=wrap;html=1;fontFamily=宋体;fontSource=https%3A%2F%2Ffonts.googleapis.com%2Fcss%3Ffamily%3D%25E5%25AE%258B%25E4%25BD%2593;" vertex="1" parent="1">
          <mxGeometry x="478" y="471" width="100" height="60" as="geometry" />
        </mxCell>
        <mxCell id="jz-0379kCDaYMPcXDYEe-18" value="" style="endArrow=none;html=1;rounded=0;fontFamily=宋体;fontSource=https%3A%2F%2Ffonts.googleapis.com%2Fcss%3Ffamily%3D%25E5%25AE%258B%25E4%25BD%2593;" edge="1" parent="1">
          <mxGeometry width="50" height="50" relative="1" as="geometry">
            <mxPoint x="228" y="451" as="sourcePoint" />
            <mxPoint x="588" y="451" as="targetPoint" />
          </mxGeometry>
        </mxCell>
        <mxCell id="jz-0379kCDaYMPcXDYEe-19" value="" style="endArrow=none;dashed=1;html=1;strokeWidth=1;rounded=0;dashPattern=12 12;fontFamily=宋体;fontSource=https%3A%2F%2Ffonts.googleapis.com%2Fcss%3Ffamily%3D%25E5%25AE%258B%25E4%25BD%2593;" edge="1" parent="1">
          <mxGeometry width="50" height="50" relative="1" as="geometry">
            <mxPoint x="348" y="701" as="sourcePoint" />
            <mxPoint x="348" y="471" as="targetPoint" />
          </mxGeometry>
        </mxCell>
        <mxCell id="jz-0379kCDaYMPcXDYEe-20" value="" style="endArrow=none;dashed=1;html=1;strokeWidth=1;rounded=0;dashPattern=12 12;fontFamily=宋体;fontSource=https%3A%2F%2Ffonts.googleapis.com%2Fcss%3Ffamily%3D%25E5%25AE%258B%25E4%25BD%2593;" edge="1" parent="1">
          <mxGeometry width="50" height="50" relative="1" as="geometry">
            <mxPoint x="467" y="701" as="sourcePoint" />
            <mxPoint x="467.17" y="471" as="targetPoint" />
          </mxGeometry>
        </mxCell>
        <mxCell id="jz-0379kCDaYMPcXDYEe-21" value="&lt;p style=&quot;border-color: var(--border-color); orphans: 2; text-indent: 0px; widows: 2; background-color: rgb(251, 251, 251); text-decoration-thickness: initial; text-decoration-style: initial; text-decoration-color: initial;&quot;&gt;&lt;/p&gt;&lt;div style=&quot;line-height: 160%;&quot;&gt;&lt;span style=&quot;background-color: initial;&quot;&gt;1.几乎没有如何智能能力。&lt;/span&gt;&lt;br&gt;&lt;/div&gt;&lt;span style=&quot;color: rgb(0, 0, 0); font-size: 12px; font-style: normal; font-variant-ligatures: normal; font-variant-caps: normal; font-weight: 400; letter-spacing: normal; text-transform: none; word-spacing: 0px; -webkit-text-stroke-width: 0px; border-color: var(--border-color); background-color: initial;&quot;&gt;&lt;div style=&quot;line-height: 160%;&quot;&gt;&lt;span style=&quot;background-color: initial;&quot;&gt;2.智能接受命令进行执行。&lt;/span&gt;&lt;/div&gt;&lt;/span&gt;&lt;span style=&quot;color: rgb(0, 0, 0); font-size: 12px; font-style: normal; font-variant-ligatures: normal; font-variant-caps: normal; font-weight: 400; letter-spacing: normal; text-transform: none; word-spacing: 0px; -webkit-text-stroke-width: 0px; border-color: var(--border-color); background-color: initial;&quot;&gt;&lt;div style=&quot;line-height: 160%;&quot;&gt;&lt;span style=&quot;background-color: initial;&quot;&gt;3.卫星仅为“执行器”。&lt;/span&gt;&lt;/div&gt;&lt;/span&gt;&lt;p&gt;&lt;/p&gt;&lt;div style=&quot;&quot;&gt;&lt;br&gt;&lt;/div&gt;" style="rounded=0;whiteSpace=wrap;html=1;align=left;fontFamily=宋体;fontSource=https%3A%2F%2Ffonts.googleapis.com%2Fcss%3Ffamily%3D%25E5%25AE%258B%25E4%25BD%2593;" vertex="1" parent="1">
          <mxGeometry x="238" y="551" width="100" height="140" as="geometry" />
        </mxCell>
        <mxCell id="jz-0379kCDaYMPcXDYEe-22" value="&lt;div style=&quot;text-align: left; border-color: var(--border-color); line-height: 19.2px;&quot;&gt;1.具有局部决策能力。&lt;br style=&quot;border-color: var(--border-color);&quot;&gt;&lt;/div&gt;&lt;span style=&quot;border-color: var(--border-color); background-color: initial;&quot;&gt;&lt;div style=&quot;text-align: left; border-color: var(--border-color); line-height: 19.2px;&quot;&gt;&lt;span style=&quot;border-color: var(--border-color); background-color: initial;&quot;&gt;2.可以自我感知新的任务。&lt;/span&gt;&lt;/div&gt;&lt;/span&gt;&lt;span style=&quot;border-color: var(--border-color); background-color: initial;&quot;&gt;&lt;div style=&quot;text-align: left; border-color: var(--border-color); line-height: 19.2px;&quot;&gt;&lt;span style=&quot;border-color: var(--border-color); background-color: initial;&quot;&gt;3.可以与其他卫星进行信息交互。&lt;/span&gt;&lt;/div&gt;&lt;/span&gt;&lt;p style=&quot;border-color: var(--border-color);&quot;&gt;&lt;/p&gt;&lt;div style=&quot;border-color: var(--border-color);&quot;&gt;&lt;br style=&quot;border-color: var(--border-color); text-align: left;&quot;&gt;&lt;/div&gt;" style="rounded=0;whiteSpace=wrap;html=1;fontFamily=宋体;fontSource=https%3A%2F%2Ffonts.googleapis.com%2Fcss%3Ffamily%3D%25E5%25AE%258B%25E4%25BD%2593;" vertex="1" parent="1">
          <mxGeometry x="358" y="551" width="100" height="140" as="geometry" />
        </mxCell>
        <mxCell id="jz-0379kCDaYMPcXDYEe-23" value="&lt;div style=&quot;text-align: left; border-color: var(--border-color); line-height: 19.2px;&quot;&gt;1.具有全局感官。&lt;br style=&quot;border-color: var(--border-color);&quot;&gt;&lt;/div&gt;&lt;span style=&quot;border-color: var(--border-color); background-color: initial;&quot;&gt;&lt;div style=&quot;text-align: left; border-color: var(--border-color); line-height: 19.2px;&quot;&gt;&lt;span style=&quot;border-color: var(--border-color); background-color: initial;&quot;&gt;2.强大的星上运算能力。&lt;/span&gt;&lt;/div&gt;&lt;/span&gt;&lt;span style=&quot;border-color: var(--border-color); background-color: initial;&quot;&gt;&lt;div style=&quot;text-align: left; border-color: var(--border-color); line-height: 19.2px;&quot;&gt;&lt;span style=&quot;border-color: var(--border-color); background-color: initial;&quot;&gt;3.可执行部分地面系统功能。&lt;/span&gt;&lt;/div&gt;&lt;/span&gt;&lt;p style=&quot;border-color: var(--border-color);&quot;&gt;&lt;/p&gt;&lt;div style=&quot;border-color: var(--border-color);&quot;&gt;&lt;br style=&quot;border-color: var(--border-color); text-align: left;&quot;&gt;&lt;/div&gt;" style="rounded=0;whiteSpace=wrap;html=1;fontFamily=宋体;fontSource=https%3A%2F%2Ffonts.googleapis.com%2Fcss%3Ffamily%3D%25E5%25AE%258B%25E4%25BD%2593;" vertex="1" parent="1">
          <mxGeometry x="478" y="551" width="100" height="140" as="geometry" />
        </mxCell>
      </root>
    </mxGraphModel>
  </diagram>
</mxfile>
